<svg width="25" height="24" viewBox="0 0 25 24" fill="none" xmlns="http://www.w3.org/2000/svg">
<path d="M11.8438 14L13.8438 14L13.8438 16L11.8438 16L11.8438 14Z" fill="#3D3938"/>
<path d="M9.84375 12L11.8438 12L11.8438 14L9.84375 14L9.84375 12Z" fill="#3D3938"/>
<path d="M7.84375 10L9.84375 10L9.84375 12L7.84375 12L7.84375 10Z" fill="#3D3938"/>
<path d="M5.84375 8L7.84375 8L7.84375 10L5.84375 10L5.84375 8Z" fill="#3D3938"/>
<path d="M13.8438 12L15.8438 12L15.8438 14L13.8438 14L13.8438 12Z" fill="#3D3938"/>
<path d="M15.8438 10L17.8438 10L17.8438 12L15.8438 12L15.8438 10Z" fill="#3D3938"/>
<path d="M17.8438 8L19.8438 8L19.8438 10L17.8438 10L17.8438 8Z" fill="#3D3938"/>
</svg>
